<svg xmlns="http://www.w3.org/2000/svg" viewBox="0 0 64 64">
  <defs>
    <linearGradient id="g" x1="14.65" x2="49.35" y1="6.52" y2="57.48" gradientUnits="userSpaceOnUse">
      <stop offset="0" stop-color="#0ea5e9" />
      <stop offset="1" stop-color="#2563eb" />
    </linearGradient>
  </defs>
  <rect x="8" y="14" width="48" height="36" rx="6" fill="url(#g)" />
  <rect x="16" y="12" width="32" height="16" rx="4" fill="#f8fafc" />
  <path
    fill="#f8fafc"
    d="M20 38h24v6a4 4 0 0 1-4 4H24a4 4 0 0 1-4-4v-6Z"
  />
  <path
    fill="#1e3a8a"
    d="M24 42.5a1.5 1.5 0 0 1 3 0v3a1.5 1.5 0 0 1-3 0v-3Zm13 0a1.5 1.5 0 0 1 3 0v3a1.5 1.5 0 0 1-3 0v-3Z"
  />
  <rect x="24" y="20" width="16" height="4" rx="2" fill="#1e3a8a" />
</svg>
